<?xml version="1.0" encoding="UTF-8" standalone="no"?>
<!-- Created with Inkscape (http://www.inkscape.org/) -->

<svg
   xmlns:dc="http://purl.org/dc/elements/1.1/"
   xmlns:cc="http://creativecommons.org/ns#"
   xmlns:rdf="http://www.w3.org/1999/02/22-rdf-syntax-ns#"
   xmlns:svg="http://www.w3.org/2000/svg"
   xmlns="http://www.w3.org/2000/svg"
   xmlns:sodipodi="http://sodipodi.sourceforge.net/DTD/sodipodi-0.dtd"
   xmlns:inkscape="http://www.inkscape.org/namespaces/inkscape"
   width="64mm"
   height="64mm"
   viewBox="0 0 226.77168 226.77166"
   id="svg2"
   version="1.1"
   inkscape:version="0.91 r13725"
   sodipodi:docname="favicon.svg">
  <defs
     id="defs4" />
  <sodipodi:namedview
     id="base"
     pagecolor="#ffffff"
     bordercolor="#666666"
     borderopacity="1.0"
     inkscape:pageopacity="0.0"
     inkscape:pageshadow="2"
     inkscape:zoom="1"
     inkscape:cx="331.60988"
     inkscape:cy="126.37517"
     inkscape:document-units="px"
     inkscape:current-layer="text3336"
     showgrid="false"
     fit-margin-top="8.33632"
     fit-margin-left="11.16406"
     fit-margin-right="11.16406"
     fit-margin-bottom="8.33632"
     inkscape:window-width="1920"
     inkscape:window-height="1148"
     inkscape:window-x="0"
     inkscape:window-y="0"
     inkscape:window-maximized="1" />
  <metadata
     id="metadata7">
    <rdf:RDF>
      <cc:Work
         rdf:about="">
        <dc:format>image/svg+xml</dc:format>
        <dc:type
           rdf:resource="http://purl.org/dc/dcmitype/StillImage" />
        <dc:title />
      </cc:Work>
    </rdf:RDF>
  </metadata>
  <g
     inkscape:label="Layer 1"
     inkscape:groupmode="layer"
     id="layer1"
     transform="translate(-6.4615513,-111.96572)">
    <g
       style="font-style:normal;font-weight:normal;font-size:40px;line-height:125%;font-family:sans-serif;letter-spacing:0px;word-spacing:0px;fill:#337ab7;fill-opacity:1;stroke:none;stroke-width:1px;stroke-linecap:butt;stroke-linejoin:miter;stroke-opacity:1"
       id="text3336">
      <path
         d="M 76.956749,309.81448 Q 63.861046,293.29105 54.808311,271.14261 45.755577,248.99417 45.755577,225.2637 q 0,-20.91797 6.767578,-40.07812 7.910156,-22.23633 24.433594,-44.29688 l 11.337891,0 q -10.634766,18.28125 -14.0625,26.10352 -5.361329,12.1289 -8.4375,25.3125 -3.779297,16.43554 -3.779297,33.04687 0,42.27539 26.279297,84.46289 l -11.337891,0 z"
         style="fill:#337ab7;fill-opacity:1"
         id="path3337" />
      <path
         d="m 167.13253,309.81448 -11.33789,0 q 26.2793,-42.1875 26.2793,-84.46289 0,-16.52343 -3.7793,-32.7832 -2.98828,-13.18359 -8.34961,-25.3125 -3.42773,-7.91016 -14.15039,-26.36719 l 11.33789,0 q 16.52344,22.06055 24.43359,44.29688 6.76758,19.16015 6.76758,40.07812 0,23.73047 -9.14062,45.87891 -9.05274,22.14844 -22.06055,38.67187 z"
         style="fill:#337ab7;fill-opacity:1"
         id="path3339" />
    </g>
  </g>
</svg>
