<?xml version="1.0" encoding="UTF-8" standalone="no"?>
<svg
   xmlns:dc="http://purl.org/dc/elements/1.1/"
   xmlns:cc="http://creativecommons.org/ns#"
   xmlns:rdf="http://www.w3.org/1999/02/22-rdf-syntax-ns#"
   xmlns:svg="http://www.w3.org/2000/svg"
   xmlns="http://www.w3.org/2000/svg"
   style="shape-rendering:geometricPrecision"
   version="1.1"
   id="svg2"
   viewBox="0 0 52.799961 15.640473"
   height="4.4140897mm"
   width="14.901323mm">
  <defs
     id="defs4">
    <filter
       id="filter3576"
       style="color-interpolation-filters:sRGB;">
      <feTurbulence
         id="feTurbulence3578"
         result="turbulence"
         baseFrequency="0.013 0.013"
         seed="1"
         numOctaves="5"
         type="fractalNoise" />
      <feDisplacementMap
         result="fbSourceGraphic"
         id="feDisplacementMap3580"
         xChannelSelector="R"
         yChannelSelector="G"
         scale="6.6"
         in2="turbulence"
         in="SourceGraphic" />
      <feColorMatrix
         id="feColorMatrix3582"
         values="0 0 0 -1 0 0 0 0 -1 0 0 0 0 -1 0 0 0 0 1 0"
         in="fbSourceGraphic"
         result="fbSourceGraphicAlpha" />
      <feTurbulence
         in="fbSourceGraphic"
         result="turbulence"
         baseFrequency="0.013 0.013"
         seed="1"
         numOctaves="5"
         type="fractalNoise"
         id="feTurbulence3584" />
      <feDisplacementMap
         result="fbSourceGraphic"
         xChannelSelector="R"
         yChannelSelector="G"
         scale="6.6"
         in="fbSourceGraphic"
         in2="turbulence"
         id="feDisplacementMap3586" />
      <feColorMatrix
         id="feColorMatrix3588"
         values="0 0 0 -1 0 0 0 0 -1 0 0 0 0 -1 0 0 0 0 1 0"
         in="fbSourceGraphic"
         result="fbSourceGraphicAlpha" />
      <feTurbulence
         in="fbSourceGraphic"
         result="turbulence"
         baseFrequency="0.013 0.013"
         seed="1"
         numOctaves="5"
         type="fractalNoise"
         id="feTurbulence3590" />
      <feDisplacementMap
         xChannelSelector="R"
         yChannelSelector="G"
         scale="6.6"
         in="fbSourceGraphic"
         in2="turbulence"
         id="feDisplacementMap3592" />
    </filter>
  </defs>
  <metadata
     id="metadata7">
    <rdf:RDF>
      <cc:Work
         rdf:about="">
        <dc:format>image/svg+xml</dc:format>
        <dc:type
           rdf:resource="http://purl.org/dc/dcmitype/StillImage" />
        <dc:title />
      </cc:Work>
    </rdf:RDF>
  </metadata>
  <g
     transform="translate(-33.775183,-260.6649)"
     id="layer1">
    <g
       id="text3336"
       style="font-style:normal;font-variant:normal;font-weight:normal;font-stretch:normal;font-size:40px;line-height:100%;font-family:Arimo;-inkscape-font-specification:'Arimo, Normal';text-align:start;letter-spacing:0px;word-spacing:0px;writing-mode:lr-tb;text-anchor:start;fill:#337ab7;fill-opacity:1;stroke:none;stroke-width:1px;stroke-linecap:butt;stroke-linejoin:miter;stroke-opacity:1">
      <path
         id="path3601"
         style="fill:#4d4d4d"
         d="m 40.954551,265.36014 0,1.0498 q -0.476074,-0.26245 -0.958252,-0.39062 -0.476074,-0.13428 -0.964355,-0.13428 -1.092529,0 -1.696777,0.6958 -0.604248,0.6897 -0.604248,1.94092 0,1.25122 0.604248,1.94702 0.604248,0.6897 1.696777,0.6897 0.488281,0 0.964355,-0.12818 0.482178,-0.13427 0.958252,-0.39672 l 0,1.03759 q -0.469971,0.21973 -0.976563,0.32959 -0.500488,0.10987 -1.068115,0.10987 -1.544189,0 -2.453613,-0.97046 -0.909423,-0.97046 -0.909423,-2.61841 0,-1.67236 0.915527,-2.63062 0.921631,-0.95825 2.520752,-0.95825 0.518798,0 1.013183,0.10987 0.494385,0.10376 0.958252,0.31738 z" />
      <path
         id="path3603"
         style="font-style:normal;font-variant:normal;font-weight:normal;font-stretch:normal;font-size:12.49999809px;line-height:100%;font-family:Dingbats;-inkscape-font-specification:Dingbats;text-align:start;letter-spacing:-0.47999993px;writing-mode:lr-tb;text-anchor:start;fill:#337ab7;fill-opacity:1"
         d="m 45.137636,262.44876 q -0.817871,1.40381 -1.214599,2.7771 -0.396729,1.37329 -0.396729,2.7832 0,1.40992 0.396729,2.79541 0.402832,1.3794 1.214599,2.7771 l -0.976562,0 q -0.915527,-1.43432 -1.373291,-2.81982 -0.45166,-1.3855 -0.45166,-2.75269 0,-1.36108 0.45166,-2.74047 0.45166,-1.3794 1.373291,-2.81983 l 0.976562,0 z" />
      <path
         id="path3605"
         style="font-style:normal;font-variant:normal;font-weight:normal;font-stretch:normal;font-size:12.49999809px;line-height:100%;font-family:Dingbats;-inkscape-font-specification:Dingbats;text-align:start;letter-spacing:-0.47999993px;writing-mode:lr-tb;text-anchor:start;fill:#337ab7;fill-opacity:1"
         d="m 50.165184,262.44876 0.976562,0 q 0.915527,1.44043 1.367188,2.81983 0.457763,1.37939 0.457763,2.74047 0,1.36719 -0.457763,2.75269 -0.451661,1.3855 -1.367188,2.81982 l -0.976562,0 q 0.811767,-1.3977 1.208496,-2.7771 0.402832,-1.38549 0.402832,-2.79541 0,-1.40991 -0.402832,-2.7832 -0.396729,-1.37329 -1.208496,-2.7771 z" />
      <path
         id="path3607"
         style="fill:#4d4d4d"
         d="m 60.427369,267.80765 0,4.12597 -1.123047,0 0,-4.08935 q 0,-0.97046 -0.378418,-1.45264 -0.378418,-0.48217 -1.135253,-0.48217 -0.909424,0 -1.434326,0.57983 -0.524903,0.57983 -0.524903,1.58081 l 0,3.86352 -1.12915,0 0,-6.83593 1.12915,0 0,1.06201 q 0.402832,-0.61646 0.946045,-0.92163 0.549317,-0.30518 1.263428,-0.30518 1.177978,0 1.782226,0.73242 0.604248,0.72632 0.604248,2.14234 z" />
      <path
         id="path3609"
         style="fill:#4d4d4d"
         d="m 67.723247,265.09769 0,6.83593 -1.129151,0 0,-5.96313 -3.082275,0 0,5.96313 -1.12915,0 0,-5.96313 -1.074218,0 0,-0.8728 1.074218,0 0,-0.47608 q 0,-1.11694 0.524902,-1.64795 0.531006,-0.5371 1.623535,-0.5371 l 1.129151,0 0,0.93383 -1.074219,0 q -0.604248,0 -0.842285,0.24414 -0.231934,0.24414 -0.231934,0.87891 l 0,0.60425 4.211426,0 z m -1.129151,-2.64893 1.129151,0 0,1.42212 -1.129151,0 0,-1.42212 z" />
      <path
         id="path3611"
         style="font-style:normal;font-variant:normal;font-weight:normal;font-stretch:normal;font-size:12.49999809px;line-height:100%;font-family:Dingbats;-inkscape-font-specification:Dingbats;text-align:start;letter-spacing:-0.47999993px;writing-mode:lr-tb;text-anchor:start;fill:#337ab7;fill-opacity:1"
         d="m 69.284,270.38333 1.287842,0 0,1.55029 -1.287842,0 0,-1.55029 z" />
      <path
         id="path3613"
         style="fill:#4d4d4d"
         d="m 77.123088,268.43631 q 0,-1.2207 -0.506592,-1.89209 -0.500488,-0.67139 -1.409912,-0.67139 -0.90332,0 -1.409912,0.67139 -0.500488,0.67139 -0.500488,1.89209 0,1.2146 0.500488,1.88599 0.506592,0.67138 1.409912,0.67138 0.909424,0 1.409912,-0.67138 0.506592,-0.67139 0.506592,-1.88599 z m 1.123047,2.64893 q 0,1.7456 -0.775147,2.59399 -0.775146,0.85449 -2.374267,0.85449 -0.592041,0 -1.116943,-0.0916 -0.524902,-0.0854 -1.019287,-0.26856 l 0,-1.09252 q 0.494385,0.26855 0.976562,0.39672 0.482178,0.12818 0.982666,0.12818 1.104736,0 1.654053,-0.57984 0.549316,-0.57373 0.549316,-1.7395 l 0,-0.55542 q -0.3479,0.60425 -0.891113,0.90332 -0.543213,0.29907 -1.300049,0.29907 -1.257324,0 -2.026367,-0.95825 -0.769043,-0.95825 -0.769043,-2.53906 0,-1.58691 0.769043,-2.54517 0.769043,-0.95825 2.026367,-0.95825 0.756836,0 1.300049,0.29908 0.543213,0.29907 0.891113,0.90332 l 0,-1.0376 1.123047,0 0,5.98755 z" />
      <path
         id="path3615"
         style="fill:#4d4d4d"
         d="m 84.437278,265.2991 0,1.06202 q -0.476074,-0.24415 -0.988769,-0.36622 -0.512696,-0.12207 -1.062012,-0.12207 -0.836182,0 -1.257324,0.25635 -0.415039,0.25635 -0.415039,0.76904 0,0.39063 0.299072,0.61646 0.299072,0.21973 1.202393,0.42114 l 0.384521,0.0855 q 1.196289,0.25635 1.696777,0.72632 0.506592,0.46387 0.506592,1.30005 0,0.95215 -0.756836,1.50757 -0.750732,0.55542 -2.069092,0.55542 -0.549316,0 -1.14746,-0.10987 -0.592041,-0.10376 -1.251221,-0.31738 l 0,-1.15967 q 0.622559,0.32349 1.226807,0.48828 0.604248,0.15869 1.196289,0.15869 0.793456,0 1.220702,-0.26855 0.427247,-0.27466 0.427247,-0.76904 0,-0.45777 -0.31128,-0.70191 -0.305175,-0.24414 -1.348876,-0.46997 l -0.390625,-0.0915 q -1.043701,-0.21973 -1.507569,-0.67139 -0.463867,-0.45776 -0.463867,-1.25122 0,-0.96435 0.683594,-1.48925 0.683594,-0.52491 1.940918,-0.52491 0.622558,0 1.171874,0.0916 0.549317,0.0915 1.013184,0.27465 z" />
    </g>
    <g
       id="text3392"
       style="font-style:normal;font-weight:normal;font-size:5px;line-height:125%;font-family:sans-serif;letter-spacing:0px;word-spacing:0px;fill:#000000;fill-opacity:1;stroke:none;stroke-width:1px;stroke-linecap:butt;stroke-linejoin:miter;stroke-opacity:1" />
  </g>
</svg>
