<?xml version="1.0" standalone="no"?>
<!DOCTYPE svg PUBLIC "-//W3C//DTD SVG 20010904//EN"
 "http://www.w3.org/TR/2001/REC-SVG-20010904/DTD/svg10.dtd">
<svg version="1.0" xmlns="http://www.w3.org/2000/svg"
 width="700.000000pt" height="700.000000pt" viewBox="0 0 700.000000 700.000000"
 preserveAspectRatio="xMidYMid meet">
<metadata>
Created by potrace 1.11, written by Peter Selinger 2001-2013
</metadata>
<g transform="translate(0.000000,700.000000) scale(0.100000,-0.100000)"
fill="#000000" stroke="none">
<path d="M2177 6102 c-9 -2 -17 -10 -17 -17 0 -7 -3 -15 -8 -17 -10 -4 -132
-178 -214 -303 -340 -525 -585 -1106 -663 -1575 -3 -19 -10 -60 -15 -90 -5
-30 -12 -80 -15 -110 -3 -30 -8 -62 -10 -70 -9 -37 -19 -241 -19 -410 0 -227
13 -422 39 -570 9 -52 16 -96 20 -120 7 -51 55 -253 86 -357 141 -485 420
-1042 738 -1470 l76 -103 173 0 c94 0 172 2 172 5 0 3 -26 49 -59 103 -239
398 -446 861 -560 1255 -34 116 -67 240 -75 277 -9 45 -15 74 -26 120 -16 72
-48 279 -55 355 -4 39 -8 77 -10 85 -9 33 -18 255 -18 420 0 226 13 416 43
615 5 33 12 80 15 105 5 36 43 224 60 300 20 90 100 372 115 405 5 11 20 53
34 93 88 251 264 606 490 986 26 43 44 81 40 85 -6 6 -305 9 -337 3z"/>
<path d="M4642 6050 c17 -30 76 -134 130 -230 125 -220 283 -540 341 -690 38
-97 79 -212 82 -230 1 -3 13 -42 28 -87 22 -68 69 -242 82 -303 15 -69 45
-222 49 -250 3 -19 7 -44 10 -55 4 -21 17 -112 22 -155 1 -14 6 -52 10 -85 4
-33 9 -78 11 -100 9 -82 10 -593 2 -680 -16 -170 -20 -210 -24 -235 -2 -14 -9
-61 -15 -105 -45 -308 -152 -691 -291 -1038 -100 -250 -293 -630 -447 -879
l-24 -38 176 0 175 0 59 78 c268 353 522 829 685 1282 39 107 78 232 93 289 2
9 11 43 19 76 9 33 18 71 21 85 2 14 9 45 14 70 15 70 35 195 45 275 36 312
36 619 -1 920 -3 22 -7 56 -9 75 -23 184 -88 454 -162 670 -72 212 -211 521
-327 724 -31 54 -56 100 -56 102 0 16 -264 413 -347 524 l-34 45 -174 0 -174
1 31 -56z"/>
</g>
</svg>
